<?xml version="1.0" standalone="no"?><!DOCTYPE svg PUBLIC "-//W3C//DTD SVG 1.1//EN" "http://www.w3.org/Graphics/SVG/1.1/DTD/svg11.dtd"><svg t="1548440524809" class="icon" style="" viewBox="0 0 1024 1024" version="1.1" xmlns="http://www.w3.org/2000/svg" p-id="2206" xmlns:xlink="http://www.w3.org/1999/xlink" width="200" height="200"><defs><style type="text/css"></style></defs><path d="M806 911H617.6c-11.6 0-21-9.4-21-21s9.4-21 21-21H806c34.7 0 63-28.3 63-63V638c0-11.6 9.4-21 21-21s21 9.4 21 21v168c0 57.9-47.1 105-105 105zM890 407c-11.6 0-21-9.4-21-21V218c0-34.7-28.3-63-63-63H617.6c-11.6 0-21-9.4-21-21s9.4-21 21-21H806c57.9 0 105 47.1 105 105v168c0 11.6-9.4 21-21 21zM134 407c-11.6 0-21-9.4-21-21V218c0-57.9 47.1-105 105-105h189.6c11.6 0 21 9.4 21 21s-9.4 21-21 21H218c-34.7 0-63 28.3-63 63v168c0 11.6-9.4 21-21 21zM407.6 911H218c-57.9 0-105-47.1-105-105V638c0-11.6 9.4-21 21-21s21 9.4 21 21v168c0 34.7 28.3 63 63 63h189.6c11.6 0 21 9.4 21 21s-9.4 21-21 21zM320.1 701c-11.6 0-21-9.5-21-21V386c0-11.6 9.4-21 21-21 11.5 0 21 9.4 21 21v294c0 11.5-9.4 21-21 21zM446.1 701c-11.6 0-21-9.5-21-21V386c0-11.6 9.4-21 21-21 11.5 0 21 9.4 21 21v294c0 11.5-9.4 21-21 21zM572.1 701c-11.6 0-21-9.5-21-21V386c0-11.6 9.4-21 21-21 11.5 0 21 9.4 21 21v294c0 11.5-9.4 21-21 21zM698.1 701c-11.6 0-21-9.5-21-21V386c0-11.6 9.4-21 21-21 11.5 0 21 9.4 21 21v294c0 11.5-9.4 21-21 21z" p-id="2207" fill="#1afa29"></path></svg>