<?xml version="1.0" encoding="utf-8"?>
<!-- Generator: Adobe Illustrator 22.1.0, SVG Export Plug-In . SVG Version: 6.00 Build 0)  -->
<svg version="1.1" id="图层_1" xmlns="http://www.w3.org/2000/svg" xmlns:xlink="http://www.w3.org/1999/xlink" x="0px" y="0px"
	 viewBox="0 0 25 25" style="enable-background:new 0 0 25 25;" xml:space="preserve">
<style type="text/css">
	.st0{fill-rule:evenodd;clip-rule:evenodd;fill:none;}
	.st1{fill-rule:evenodd;clip-rule:evenodd;fill:#AEC3BA;}
</style>
<rect class="st0" width="25" height="25"/>
<g id="确认密码_3_">
	<g>
		<path class="st1" d="M7.9,6.7c0-2.6,2.1-4.8,4.6-4.8c2.3,0,4.5,2.2,4.5,4.8v2.4h1V6.7c0-3.2-2.5-5.9-5.6-5.9
			c-3.1,0-5.6,2.6-5.6,5.9v2.3h1V6.7z M18.3,10.4H6.7c-1.3,0-2.4,1.1-2.4,2.5v2.9c0,4.6,3.6,8.3,7.9,8.3h0.6c4.4,0,7.9-3.7,7.9-8.3
			v-2.9C20.7,11.5,19.7,10.4,18.3,10.4z M18.3,15.1l-6,4.6c-0.2,0.1-0.4,0.2-0.7,0.2c-0.2,0-0.5-0.1-0.7-0.2l-3.3-2.6
			c-0.4-0.3-0.4-0.9-0.1-1.2c0.4-0.4,1-0.4,1.4-0.1l2.7,2.1l5.3-4.1c0.4-0.3,1-0.3,1.4,0.1C18.8,14.2,18.7,14.8,18.3,15.1z"/>
	</g>
</g>
</svg>
