<?xml version="1.0" standalone="no"?><!DOCTYPE svg PUBLIC "-//W3C//DTD SVG 1.1//EN" "http://www.w3.org/Graphics/SVG/1.1/DTD/svg11.dtd"><svg t="1548442218124" class="icon" style="" viewBox="0 0 1024 1024" version="1.1" xmlns="http://www.w3.org/2000/svg" p-id="3625" xmlns:xlink="http://www.w3.org/1999/xlink" width="200" height="200"><defs><style type="text/css"></style></defs><path d="M513.140474 159.430946c-193.100757 0-351.07861 157.977853-351.07861 351.074516 0 193.051638 157.977853 351.025398 351.07861 351.025398 193.100757 0 351.074516-157.97376 351.074516-351.025398C864.21499 317.408799 706.24123 159.430946 513.140474 159.430946zM513.140474 791.339289c-154.480196 0-280.829733-126.402749-280.829733-280.833826 0-154.476103 126.349537-280.877828 280.829733-280.877828 154.425961 0 280.829733 126.401725 280.829733 280.877828C793.970206 664.935517 667.566434 791.339289 513.140474 791.339289z" p-id="3626" fill="#515151"></path><path d="M530.676854 334.94211 478.01757 334.94211 478.01757 545.579248 660.57419 657.890061 688.651638 612.326374 530.676854 517.49873Z" p-id="3627" fill="#515151"></path></svg>