<?xml version="1.0" encoding="utf-8"?>
<!-- Generator: Adobe Illustrator 22.1.0, SVG Export Plug-In . SVG Version: 6.00 Build 0)  -->
<svg version="1.1" id="图层_1" xmlns="http://www.w3.org/2000/svg" xmlns:xlink="http://www.w3.org/1999/xlink" x="0px" y="0px"
	 viewBox="0 0 25 25" style="enable-background:new 0 0 25 25;" xml:space="preserve">
<style type="text/css">
	.st0{fill-rule:evenodd;clip-rule:evenodd;fill:#15B08E;}
</style>
<g id="形状_43">
	<g>
		<path class="st0" d="M18.5,4.3h-2l-0.2-1.7c-0.1-0.6-0.6-1-1.1-1H9.8c-0.6,0-1.1,0.5-1.1,1L8.5,4.3h-2c-1.1,0-2,0.9-2,2.1V7h16
			V6.3C20.5,5.2,19.6,4.3,18.5,4.3z M9.8,4.3L10,2.9h5l0.2,1.4H9.8z M18.8,8.4H6.2C5.4,8.4,4.9,9,5,9.7L6,22.1
			c0.1,0.8,0.7,1.4,1.5,1.4h10c0.7,0,1.4-0.6,1.5-1.4L20,9.7C20.1,9,19.6,8.4,18.8,8.4z M9.8,20.8h-2l-0.7-9.6h2.7V20.8z M13.8,20.8
			h-2.7v-9.6h2.7V20.8z M17.2,20.8h-2v-9.6h2.7L17.2,20.8z"/>
	</g>
</g>
</svg>
