<?xml version="1.0" encoding="utf-8"?>
<!-- Generator: Adobe Illustrator 22.1.0, SVG Export Plug-In . SVG Version: 6.00 Build 0)  -->
<svg version="1.1" id="图层_1" xmlns="http://www.w3.org/2000/svg" xmlns:xlink="http://www.w3.org/1999/xlink" x="0px" y="0px"
	 viewBox="0 0 25 25" style="enable-background:new 0 0 25 25;" xml:space="preserve">
<style type="text/css">
	.st0{fill:none;}
	.st1{fill-rule:evenodd;clip-rule:evenodd;fill:#FFFFFF;}
</style>
<rect class="st0" width="25" height="25"/>
<g id="形状_38">
	<g>
		<path class="st1" d="M6.7,6.2C6.8,6.2,7,6.3,7.2,6.3h10.5c0.2,0,0.4,0,0.5-0.1c0.1-0.1,0.2-0.2,0.2-0.3c0.1-0.1,0.1-0.3,0.1-0.5
			V3.7c0-0.3-0.1-0.6-0.2-0.7c-0.1-0.2-0.3-0.3-0.4-0.4c-0.2-0.1-0.4-0.1-0.6-0.1H7.6c-0.2,0-0.4,0-0.6,0.1C6.8,2.7,6.7,2.8,6.5,3
			C6.4,3.2,6.4,3.4,6.4,3.7v1.7c0,0.2,0,0.3,0.1,0.5C6.5,6,6.6,6.1,6.7,6.2z M20.2,9.8c-0.2-0.2-0.4-0.4-0.6-0.6l-1.4-1.7h-11
			L5.4,9.2C5.2,9.3,5,9.5,4.8,9.8C4.6,10,4.5,10.4,4.5,11v9.5c0,0.4,0.1,0.7,0.2,1C4.8,21.8,5,22,5.3,22.2c0.2,0.2,0.6,0.3,1.1,0.3
			h12.4c0.5,0,0.8-0.1,1.1-0.3c0.2-0.2,0.4-0.4,0.5-0.7c0.1-0.3,0.2-0.6,0.2-1V11C20.5,10.4,20.4,10,20.2,9.8z M16.5,16.6h-2.7v2.7
			h-2.7v-2.7H8.5v-2.7h2.7v-2.7h2.7v2.7h2.7V16.6z"/>
	</g>
</g>
</svg>
