<?xml version="1.0" encoding="utf-8"?>
<!-- Generator: Adobe Illustrator 22.1.0, SVG Export Plug-In . SVG Version: 6.00 Build 0)  -->
<svg version="1.1" id="图层_1" xmlns="http://www.w3.org/2000/svg" xmlns:xlink="http://www.w3.org/1999/xlink" x="0px" y="0px"
	 viewBox="0 0 25 25" style="enable-background:new 0 0 25 25;" xml:space="preserve">
<style type="text/css">
	.st0{fill-rule:evenodd;clip-rule:evenodd;fill:none;}
	.st1{fill-rule:evenodd;clip-rule:evenodd;fill:#AEC3BA;}
</style>
<rect class="st0" width="25" height="25"/>
<g id="短信验证码_3_">
	<g>
		<path class="st1" d="M20.3,2.7H4.7c-1.7,0-2.5,0.9-2.5,2.7V16c0,1.8,0.8,2.6,2.4,2.6H7l-0.3,2.7c0,0.3,0.2,0.6,0.4,0.8
			c0.3,0.2,0.6,0.1,0.8,0l4.7-3.5h7.6c1.6,0,2.4-0.8,2.4-2.6V5.4C22.8,3.6,21.9,2.7,20.3,2.7z M7.7,12c-0.7,0-1.2-0.6-1.2-1.3
			c0-0.7,0.5-1.3,1.2-1.3c0.7,0,1.2,0.6,1.2,1.3C8.9,11.4,8.4,12,7.7,12z M12.5,12c-0.7,0-1.2-0.6-1.2-1.3c0-0.7,0.5-1.3,1.2-1.3
			c0.7,0,1.2,0.6,1.2,1.3C13.7,11.4,13.2,12,12.5,12z M17.3,12c-0.7,0-1.2-0.6-1.2-1.3c0-0.7,0.5-1.3,1.2-1.3s1.2,0.6,1.2,1.3
			C18.5,11.4,17.9,12,17.3,12z"/>
	</g>
</g>
</svg>
