<?xml version="1.0" encoding="utf-8"?>
<!-- Generator: Adobe Illustrator 22.1.0, SVG Export Plug-In . SVG Version: 6.00 Build 0)  -->
<svg version="1.1" id="图层_1" xmlns="http://www.w3.org/2000/svg" xmlns:xlink="http://www.w3.org/1999/xlink" x="0px" y="0px"
	 viewBox="0 0 25 25" style="enable-background:new 0 0 25 25;" xml:space="preserve">
<style type="text/css">
	.st0{fill-rule:evenodd;clip-rule:evenodd;fill:none;}
	.st1{fill-rule:evenodd;clip-rule:evenodd;fill:#AEC3BA;}
</style>
<rect class="st0" width="25" height="25"/>
<g id="手机号">
	<g>
		<path class="st1" d="M18.3,0.9H6.7c-0.9,0-1.7,0.7-1.7,1.6v20c0,0.9,0.7,1.6,1.7,1.6h11.5c0.4,0,0.9-0.2,1.2-0.5
			c0.3-0.3,0.5-0.7,0.5-1.2v-20C19.9,1.6,19.2,0.9,18.3,0.9z M12.5,22.3c-0.9,0-1.6-0.7-1.6-1.6c0-0.9,0.7-1.6,1.6-1.6
			c0.9,0,1.6,0.7,1.6,1.6C14.1,21.6,13.4,22.3,12.5,22.3z M17.4,17.7H7.6V3.5h9.7V17.7z"/>
	</g>
</g>
</svg>
