<?xml version="1.0" encoding="utf-8"?>
<!-- Generator: Adobe Illustrator 22.1.0, SVG Export Plug-In . SVG Version: 6.00 Build 0)  -->
<svg version="1.1" id="图层_1" xmlns="http://www.w3.org/2000/svg" xmlns:xlink="http://www.w3.org/1999/xlink" x="0px" y="0px"
	 viewBox="0 0 25 16" style="enable-background:new 0 0 25 16;" xml:space="preserve">
<style type="text/css">
	.st0{fill-rule:evenodd;clip-rule:evenodd;fill:#DE3E06;}
	.st1{fill-rule:evenodd;clip-rule:evenodd;fill:#FFFFFF;}
</style>
<g id="椭圆_7_拷贝_2">
	<g>
		<path class="st0" d="M12.5,0.5c-6.6,0-12,3.4-12,7.5c0,4.1,5.4,7.5,12,7.5s12-3.4,12-7.5C24.5,3.9,19.1,0.5,12.5,0.5z"/>
	</g>
</g>
<g id="Rx_拷贝_3_">
	<g>
		<path class="st1" d="M10.5,8.8c-0.2-0.2-0.4-0.3-0.6-0.4v0c1.3-0.4,1.9-1.2,1.9-2.4c0-0.8-0.2-1.3-0.7-1.8c-0.5-0.4-1.1-0.6-2-0.6
			H6.5v8.9h1.1V8.7h0.8C8.7,8.7,9,8.8,9.3,9c0.2,0.2,0.5,0.5,0.8,1l1.4,2.5h1.3l-1.6-2.7C10.9,9.3,10.7,9,10.5,8.8z M8.9,7.7H7.6
			V4.5h1.3c0.6,0,1,0.1,1.3,0.4c0.3,0.3,0.4,0.6,0.4,1.1c0,0.5-0.2,0.9-0.5,1.2C9.8,7.5,9.4,7.7,8.9,7.7z M18.5,6.1h-1.2l-1.5,2.6h0
			c-0.1-0.2-0.2-0.4-0.3-0.5l-1.2-2.1h-1.3l2,3.2L13,12.5h1.3l1.2-2c0.2-0.3,0.3-0.5,0.3-0.5h0c0.1,0.2,0.2,0.4,0.3,0.5l1.2,2h1.3
			l-2-3.2L18.5,6.1z"/>
	</g>
</g>
</svg>
