<?xml version="1.0" encoding="utf-8"?>
<!-- Generator: Adobe Illustrator 22.1.0, SVG Export Plug-In . SVG Version: 6.00 Build 0)  -->
<svg version="1.1" id="图层_1" xmlns="http://www.w3.org/2000/svg" xmlns:xlink="http://www.w3.org/1999/xlink" x="0px" y="0px"
	 viewBox="0 0 25 25" style="enable-background:new 0 0 25 25;" xml:space="preserve">
<style type="text/css">
	.st0{fill:none;}
	.st1{fill-rule:evenodd;clip-rule:evenodd;fill:#FFFFFF;}
</style>
<rect class="st0" width="25" height="25"/>
<g id="形状_39_3_">
	<g>
		<path class="st1" d="M10.2,19.1c-0.2-0.2-0.4-0.3-0.7-0.4c-0.3-0.1-0.5-0.1-0.8-0.1c-0.3,0-0.6,0-0.9,0.1
			c-0.3,0.1-0.5,0.2-0.7,0.4c-0.2,0.2-0.3,0.4-0.5,0.6c-0.1,0.2-0.2,0.5-0.2,0.8c0,0.3,0.1,0.5,0.2,0.8c0.1,0.2,0.3,0.5,0.5,0.6
			c0.2,0.2,0.4,0.3,0.7,0.4c0.3,0.1,0.6,0.2,0.9,0.2c0.3,0,0.6-0.1,0.8-0.2c0.3-0.1,0.5-0.2,0.7-0.4s0.3-0.4,0.5-0.6
			c0.1-0.2,0.2-0.5,0.2-0.8c0-0.3-0.1-0.5-0.2-0.8C10.6,19.5,10.4,19.3,10.2,19.1z M17.5,3c-0.4-0.3-0.8-0.5-1.2-0.5
			S15.5,2.7,15.1,3l-3.1,2.8h8.5L17.5,3z M23.9,7c-0.1-0.2-0.3-0.3-0.5-0.4c-0.2-0.1-0.6-0.2-1-0.2H6.4c0-0.3-0.1-0.6-0.1-0.8
			c0-0.2-0.1-0.4-0.1-0.6S6.1,4.7,6.1,4.6C6,4.5,6,4.4,5.9,4.2c0-0.1-0.1-0.3-0.2-0.4C5.6,3.7,5.5,3.6,5.3,3.5
			C5.1,3.4,4.8,3.4,4.5,3.4H2.2c-0.4,0-0.6,0.1-0.9,0.3C1.1,3.8,1,4.1,1,4.3c0,0.1,0,0.3,0.1,0.5c0,0.2,0.1,0.3,0.2,0.5
			c0.1,0.1,0.2,0.3,0.4,0.4C1.8,5.8,2,5.8,2.2,5.8H4c0.4,1.8,0.7,3.4,1,4.8c0.1,0.6,0.2,1.2,0.4,1.8c0.1,0.6,0.2,1.1,0.3,1.6
			C5.8,14.6,5.9,15,6,15.3c0.1,0.3,0.1,0.5,0.1,0.6c0,0.2,0.1,0.4,0.2,0.7c0.1,0.2,0.2,0.5,0.3,0.7c0.1,0.2,0.3,0.4,0.5,0.5
			c0.2,0.1,0.5,0.2,0.8,0.2h12.2c0.4,0,0.7-0.1,0.9-0.3c0.1-0.2,0.2-0.5,0.2-0.7c0-0.6-0.4-0.9-1.1-0.9H8.3L8,14.1h12.2
			c0.5,0,0.8-0.1,1.1-0.3c0.3-0.2,0.6-0.6,0.8-1.2c0.1-0.3,0.3-0.6,0.4-1.1c0.2-0.5,0.4-0.9,0.5-1.4c0.2-0.5,0.3-0.9,0.5-1.3
			c0.2-0.4,0.3-0.7,0.3-0.8C24,7.9,24,7.7,24,7.5C24,7.4,24,7.2,23.9,7z M20,19.1c-0.2-0.2-0.4-0.3-0.7-0.4
			c-0.3-0.1-0.6-0.1-0.9-0.1c-0.3,0-0.6,0-0.8,0.1c-0.3,0.1-0.5,0.2-0.7,0.4c-0.2,0.2-0.3,0.4-0.5,0.6c-0.1,0.2-0.2,0.5-0.2,0.8
			c0,0.3,0.1,0.5,0.2,0.8c0.1,0.2,0.3,0.5,0.5,0.6c0.2,0.2,0.4,0.3,0.7,0.4c0.3,0.1,0.5,0.2,0.8,0.2c0.3,0,0.6-0.1,0.9-0.2
			c0.3-0.1,0.5-0.2,0.7-0.4c0.2-0.2,0.3-0.4,0.5-0.6c0.1-0.2,0.2-0.5,0.2-0.8c0-0.3-0.1-0.5-0.2-0.8C20.3,19.5,20.2,19.3,20,19.1z"
			/>
	</g>
</g>
</svg>
