<?xml version="1.0" encoding="utf-8"?>
<!-- Generator: Adobe Illustrator 22.1.0, SVG Export Plug-In . SVG Version: 6.00 Build 0)  -->
<svg version="1.1" id="图层_1" xmlns="http://www.w3.org/2000/svg" xmlns:xlink="http://www.w3.org/1999/xlink" x="0px" y="0px"
	 viewBox="0 0 25 25" style="enable-background:new 0 0 25 25;" xml:space="preserve">
<style type="text/css">
	.st0{fill:none;}
	.st1{fill-rule:evenodd;clip-rule:evenodd;fill:#FFFFFF;}
</style>
<rect class="st0" width="25" height="25"/>
<g id="形状_36_拷贝_3_">
	<g>
		<path class="st1" d="M20.6,2.5H4.4c-1,0-1.9,0.8-1.9,1.9v13.5c0,1,0.8,1.9,1.9,1.9h6.3v1.7H9.3c-0.3,0-0.5,0.2-0.5,0.5
			c0,0.3,0.2,0.5,0.5,0.5v0h6.3c0.3,0,0.5-0.2,0.5-0.5c0-0.3-0.2-0.5-0.5-0.5h-1.3v-1.7h6.3c1,0,1.9-0.8,1.9-1.9V4.4
			C22.5,3.3,21.7,2.5,20.6,2.5z M18.5,16.1c-0.1,0.8-0.8,1.4-1.7,1.4c-0.8,0-1.5-0.6-1.7-1.4c-0.1-0.8,0.4-1.6,1.2-1.8v-0.5
			c0-0.7-0.6-1.4-1.4-1.4c-0.8,0-1.4,0.6-1.4,1.4v1.8c-0.1,1.1-1,2-2.1,1.9c-0.6,0-1.1-0.2-1.5-0.6c-0.4-0.4-0.6-0.9-0.6-1.5v-2.5
			c-0.4-0.2-0.6-0.5-0.6-1c-1.4-0.4-2.3-1.7-2.3-3.1V7c0-0.3,0.1-0.6,0.4-0.8c0.2-0.2,0.5-0.4,0.9-0.4h0.2c0.2-0.3,0.5-0.4,0.8-0.3
			C9,5.6,9.2,5.9,9.2,6.2C9.3,6.6,9,6.8,8.7,7C8.4,7.1,8.1,7,7.9,6.7C7.6,6.8,7.4,7,7.4,7.3v0.8c0.4,0.2,0.9,0.4,1.2,0.7
			c0.7,0.6,1.6,0.7,2.4,0.3c0.4-0.2,0.8-0.3,1.2-0.3V7.3c0-0.3-0.2-0.5-0.5-0.6C11.6,7,11.3,7.1,11,7c-0.3-0.1-0.5-0.4-0.5-0.7
			c0-0.3,0.2-0.6,0.5-0.7c0.3-0.1,0.6,0,0.8,0.3H12c0.3,0,0.6,0.1,0.9,0.4c0.2,0.2,0.4,0.5,0.4,0.8v1.8c0,1.4-0.9,2.7-2.3,3.1
			c0,0.4-0.2,0.8-0.6,1v2.5c0,0.7,0.5,1.2,1.2,1.2s1.2-0.5,1.2-1.2v-2.1c0-0.4,0.5-1.8,2.3-1.8c1.3,0,2.3,1,2.3,2.2v0.5
			C18.1,14.5,18.6,15.2,18.5,16.1z"/>
	</g>
</g>
</svg>
