<?xml version="1.0" encoding="utf-8"?>
<!-- Generator: Adobe Illustrator 22.1.0, SVG Export Plug-In . SVG Version: 6.00 Build 0)  -->
<svg version="1.1" id="图层_1" xmlns="http://www.w3.org/2000/svg" xmlns:xlink="http://www.w3.org/1999/xlink" x="0px" y="0px"
	 viewBox="0 0 25 25" style="enable-background:new 0 0 25 25;" xml:space="preserve">
<style type="text/css">
	.st0{fill:none;}
	.st1{fill-rule:evenodd;clip-rule:evenodd;fill:#FFFFFF;}
</style>
<rect class="st0" width="25" height="25"/>
<g id="形状_37">
	<g>
		<path class="st1" d="M12.5,13c1.7-0.9,2.8-2.7,2.8-4.7c0-1.4-0.5-2.7-1.4-3.7C13,3.6,11.7,3,10.3,3c-2.8,0-5,2.4-5,5.3
			c0,2,1.1,3.8,2.9,4.7c-3.3,0.3-5.7,3.2-5.7,6.5v0.4c0,1,0.6,1.6,1.9,1.9C5.8,22,7.3,22.1,8.7,22h3.5c3.3,0,6.2,0,6.2-2.1v-0.4
			C18.5,16.1,15.9,13.2,12.5,13z M17.4,13.2c1.4-0.8,2.3-2.4,2.3-4.1c0-2.5-1.9-4.6-4.4-4.7h-0.7v0.1c0.2,0.3,0.5,0.7,0.6,1
			c1.9,0,3.4,1.6,3.4,3.5c0,1.9-1.5,3.5-3.4,3.5h-0.1l1.9,1.8c2.4,0.1,4.3,2.2,4.3,4.6v0.3c0,0.1,0,0.2-0.1,0.2
			c-0.2,0.2-0.5,0.3-0.8,0.3c-0.4,0.1-0.9,0.1-1.3,0.1c0,0.4-0.1,0.7-0.2,1.1V21h0.1c1.9,0,3.6-0.3,3.6-1.9v-0.2
			C22.5,16,20.3,13.4,17.4,13.2z"/>
	</g>
</g>
</svg>
