<?xml version="1.0" encoding="utf-8"?>
<!-- Generator: Adobe Illustrator 22.1.0, SVG Export Plug-In . SVG Version: 6.00 Build 0)  -->
<svg version="1.1" id="图层_1" xmlns="http://www.w3.org/2000/svg" xmlns:xlink="http://www.w3.org/1999/xlink" x="0px" y="0px"
	 viewBox="0 0 25 16" style="enable-background:new 0 0 25 16;" xml:space="preserve">
<style type="text/css">
	.st0{fill-rule:evenodd;clip-rule:evenodd;fill:#018C49;}
	.st1{fill-rule:evenodd;clip-rule:evenodd;fill:#FFFFFF;}
</style>
<g id="椭圆_7">
	<g>
		<ellipse class="st0" cx="12.5" cy="8" rx="12" ry="7.5"/>
	</g>
</g>
<g id="OTC_3_">
	<g>
		<path class="st1" d="M7.3,4.5c-1,0-1.7,0.3-2.3,1C4.4,6.1,4.2,7,4.2,8.1c0,1,0.3,1.8,0.8,2.5c0.6,0.6,1.3,0.9,2.2,0.9
			c0.9,0,1.7-0.3,2.3-1c0.6-0.6,0.9-1.5,0.9-2.6c0-1-0.3-1.8-0.8-2.5C9,4.8,8.2,4.5,7.3,4.5z M8.9,10c-0.4,0.5-0.9,0.7-1.6,0.7
			c-0.6,0-1.2-0.2-1.6-0.7C5.2,9.5,5,8.8,5,8c0-0.8,0.2-1.5,0.6-2c0.4-0.5,1-0.7,1.6-0.7C8,5.3,8.5,5.5,8.9,6c0.4,0.5,0.6,1.1,0.6,2
			C9.5,8.9,9.3,9.5,8.9,10z M10.9,5.4h1.9v6h0.8v-6h1.9V4.6h-4.6V5.4z M19.3,5.3c0.6,0,1.1,0.1,1.5,0.4V4.8
			c-0.4-0.2-0.9-0.3-1.5-0.3c-1,0-1.8,0.3-2.4,1C16.3,6.2,16,7,16,8.1c0,1,0.3,1.8,0.8,2.4c0.6,0.6,1.3,0.9,2.2,0.9
			c0.7,0,1.3-0.1,1.8-0.4v-0.8c-0.5,0.3-1,0.5-1.7,0.5c-0.7,0-1.2-0.2-1.7-0.7c-0.4-0.5-0.6-1.1-0.6-1.9c0-0.8,0.2-1.5,0.7-2
			C18,5.6,18.6,5.3,19.3,5.3z"/>
	</g>
</g>
</svg>
