<?xml version="1.0" encoding="utf-8"?>
<!-- Generator: Adobe Illustrator 22.1.0, SVG Export Plug-In . SVG Version: 6.00 Build 0)  -->
<svg version="1.1" id="图层_1" xmlns="http://www.w3.org/2000/svg" xmlns:xlink="http://www.w3.org/1999/xlink" x="0px" y="0px"
	 viewBox="0 0 25 25" style="enable-background:new 0 0 25 25;" xml:space="preserve">
<style type="text/css">
	.st0{fill:none;}
	.st1{fill-rule:evenodd;clip-rule:evenodd;fill:#FFFFFF;}
</style>
<rect class="st0" width="25" height="25"/>
<g id="形状_2_3_">
	<g>
		<path class="st1" d="M13.2,18.8c0-3.4,2.5-6.2,5.5-6.2c0.4,0,0.8,0,1.2,0.2V4c0-2-1.5-3.5-3.5-3.5H5.5C3.5,0.5,2,2,2,4V21
			c0,2,1.5,3.5,3.5,3.5h11.2C14.7,23.6,13.2,21.4,13.2,18.8z M6.1,7.1h10.1c0.6,0,1,0.5,1,1.1c0,0.6-0.4,1.1-1,1.1H6.1
			c-0.6,0-1-0.5-1-1.1C5.2,7.6,5.6,7.1,6.1,7.1z M6.1,11.7H14c0.6,0,1,0.5,1,1.1s-0.4,1.1-1,1.1H6.1c-0.6,0-1-0.5-1-1.1
			S5.6,11.7,6.1,11.7z M11.9,18.3H6.1c-0.6,0-1-0.5-1-1.1c0-0.6,0.4-1.1,1-1.1h5.8c0.6,0,1,0.5,1,1.1C12.9,17.9,12.5,18.3,11.9,18.3
			z M18.7,14.2c-2.3,0-4.3,2.2-4.3,4.8s1.9,4.8,4.3,4.8c2.3,0,4.3-2.2,4.3-4.8S21.1,14.2,18.7,14.2z M20.4,18.3l-2.6,2.9
			c0,0-0.1,0.2-0.3,0.2l-1.2,0.2c-0.1,0-0.1,0-0.1-0.2l0.1-1.4c0-0.2,0-0.2,0.1-0.3l2.6-2.9h0.3l1,1.1
			C20.5,18.2,20.5,18.2,20.4,18.3z M21.2,17.4l-0.3,0.3h-0.3l-1-1.1v-0.3L20,16h0.3l1,1.1V17.4z"/>
	</g>
</g>
</svg>
