<?xml version="1.0" encoding="utf-8"?>
<!-- Generator: Adobe Illustrator 22.1.0, SVG Export Plug-In . SVG Version: 6.00 Build 0)  -->
<svg version="1.1" id="图层_1" xmlns="http://www.w3.org/2000/svg" xmlns:xlink="http://www.w3.org/1999/xlink" x="0px" y="0px"
	 viewBox="0 0 25 25" style="enable-background:new 0 0 25 25;" xml:space="preserve">
<style type="text/css">
	.st0{fill-rule:evenodd;clip-rule:evenodd;fill:none;}
	.st1{fill-rule:evenodd;clip-rule:evenodd;fill:#AEC3BA;}
</style>
<rect class="st0" width="25" height="25"/>
<g id="密码">
	<g>
		<path class="st1" d="M7.9,6.7c0-2.6,2.1-4.8,4.6-4.8c2.4,0,4.5,2.2,4.5,4.8v2.4h1V6.7c0-3.2-2.5-5.9-5.6-5.9
			c-3.1,0-5.6,2.6-5.6,5.9v2.4h1.1V6.7z M18.4,10.4H6.6c-1.3,0-2.4,1.1-2.4,2.5v2.9c0,4.6,3.6,8.3,8,8.3h0.6c4.4,0,8-3.7,8-8.3v-2.9
			C20.7,11.5,19.7,10.4,18.4,10.4z M13.6,19.4c0,0.8-0.7,1.5-1.5,1.5H12c-0.8,0-1.5-0.7-1.5-1.5v-4.5c0-0.8,0.7-1.5,1.5-1.5h0.2
			c0.8,0,1.5,0.7,1.5,1.5V19.4z"/>
	</g>
</g>
</svg>
