<?xml version="1.0" encoding="utf-8"?>
<!-- Generator: Adobe Illustrator 22.1.0, SVG Export Plug-In . SVG Version: 6.00 Build 0)  -->
<svg version="1.1" id="图层_1" xmlns="http://www.w3.org/2000/svg" xmlns:xlink="http://www.w3.org/1999/xlink" x="0px" y="0px"
	 viewBox="0 0 25 25" style="enable-background:new 0 0 25 25;" xml:space="preserve">
<style type="text/css">
	.st0{fill-rule:evenodd;clip-rule:evenodd;fill:none;}
	.st1{fill-rule:evenodd;clip-rule:evenodd;fill:#AEC3BA;}
</style>
<rect class="st0" width="25" height="25"/>
<g id="验证码_3_">
	<g>
		<path class="st1" d="M21.9,4.9H3.1c-1,0-1.9,0.8-1.9,1.9v11.3c0,1,0.8,1.9,1.9,1.9h18.9c1,0,1.9-0.8,1.9-1.9V6.8
			C23.8,5.8,23,4.9,21.9,4.9z M6.3,14.3c-1.1,0-2.1-1-2.1-2.3c0-1.3,0.9-2.3,2.1-2.3c1.1,0,2.1,1,2.1,2.3
			C8.4,13.2,7.4,14.3,6.3,14.3z M12.5,14.3c-1.1,0-2.1-1-2.1-2.3c0-1.3,0.9-2.3,2.1-2.3c1.1,0,2.1,1,2.1,2.3
			C14.5,13.2,13.6,14.3,12.5,14.3z M18.7,14.3c-1.1,0-2.1-1-2.1-2.3c0-1.3,0.9-2.3,2.1-2.3c1.1,0,2.1,1,2.1,2.3
			C20.7,13.2,19.8,14.3,18.7,14.3z"/>
	</g>
</g>
</svg>
